<mxfile host="app.diagrams.net" agent="Mozilla/5.0 (Windows NT 10.0; Win64; x64) AppleWebKit/537.36 (KHTML, like Gecko) Chrome/132.0.0.0 Safari/537.36 OPR/117.0.0.0" version="27.0.3">
  <diagram id="C5RBs43oDa-KdzZeNtuy" name="Page-1">
    <mxGraphModel dx="3402" dy="978" grid="0" gridSize="10" guides="1" tooltips="1" connect="1" arrows="1" fold="1" page="0" pageScale="1" pageWidth="827" pageHeight="1169" background="#ffffff" math="0" shadow="0">
      <root>
        <mxCell id="WIyWlLk6GJQsqaUBKTNV-0" />
        <mxCell id="WIyWlLk6GJQsqaUBKTNV-1" parent="WIyWlLk6GJQsqaUBKTNV-0" />
        <mxCell id="T8Tgvv-W22s7vSW0-p4a-5" style="edgeStyle=orthogonalEdgeStyle;rounded=0;orthogonalLoop=1;jettySize=auto;html=1;entryX=0.5;entryY=0;entryDx=0;entryDy=0;fillColor=#e51400;strokeColor=#B20000;" edge="1" parent="WIyWlLk6GJQsqaUBKTNV-1" target="ZTpw4SSyMW5aXNLGTRIe-69">
          <mxGeometry relative="1" as="geometry">
            <mxPoint x="-1495" y="117" as="sourcePoint" />
            <Array as="points">
              <mxPoint x="-1221" y="117" />
              <mxPoint x="-1221" y="265" />
            </Array>
          </mxGeometry>
        </mxCell>
        <mxCell id="zkfFHV4jXpPFQw0GAbJ--17" value="PATIENT" style="swimlane;fontStyle=0;align=center;verticalAlign=top;childLayout=stackLayout;horizontal=1;startSize=26;horizontalStack=0;resizeParent=1;resizeLast=0;collapsible=1;marginBottom=0;rounded=0;shadow=0;strokeWidth=1;fillColor=#d5e8d4;strokeColor=#82b366;gradientColor=none;swimlaneFillColor=none;glass=0;" parent="WIyWlLk6GJQsqaUBKTNV-1" vertex="1">
          <mxGeometry x="-1833" y="329" width="160" height="372" as="geometry">
            <mxRectangle x="550" y="140" width="160" height="26" as="alternateBounds" />
          </mxGeometry>
        </mxCell>
        <mxCell id="zkfFHV4jXpPFQw0GAbJ--18" value="ID : String" style="text;align=left;verticalAlign=top;spacingLeft=4;spacingRight=4;overflow=hidden;rotatable=0;points=[[0,0.5],[1,0.5]];portConstraint=eastwest;" parent="zkfFHV4jXpPFQw0GAbJ--17" vertex="1">
          <mxGeometry y="26" width="160" height="26" as="geometry" />
        </mxCell>
        <mxCell id="zkfFHV4jXpPFQw0GAbJ--21" value="Creation Date : Date" style="text;align=left;verticalAlign=top;spacingLeft=4;spacingRight=4;overflow=hidden;rotatable=0;points=[[0,0.5],[1,0.5]];portConstraint=eastwest;rounded=0;shadow=0;html=0;fillColor=#1ba1e2;fontColor=#ffffff;strokeColor=#006EAF;" parent="zkfFHV4jXpPFQw0GAbJ--17" vertex="1">
          <mxGeometry y="52" width="160" height="26" as="geometry" />
        </mxCell>
        <mxCell id="zkfFHV4jXpPFQw0GAbJ--19" value="CIN" style="text;align=left;verticalAlign=top;spacingLeft=4;spacingRight=4;overflow=hidden;rotatable=0;points=[[0,0.5],[1,0.5]];portConstraint=eastwest;rounded=0;shadow=0;html=0;" parent="zkfFHV4jXpPFQw0GAbJ--17" vertex="1">
          <mxGeometry y="78" width="160" height="26" as="geometry" />
        </mxCell>
        <mxCell id="ZTpw4SSyMW5aXNLGTRIe-4" value="City" style="text;align=left;verticalAlign=top;spacingLeft=4;spacingRight=4;overflow=hidden;rotatable=0;points=[[0,0.5],[1,0.5]];portConstraint=eastwest;rounded=0;shadow=0;html=0;" parent="zkfFHV4jXpPFQw0GAbJ--17" vertex="1">
          <mxGeometry y="104" width="160" height="26" as="geometry" />
        </mxCell>
        <mxCell id="zkfFHV4jXpPFQw0GAbJ--20" value="State" style="text;align=left;verticalAlign=top;spacingLeft=4;spacingRight=4;overflow=hidden;rotatable=0;points=[[0,0.5],[1,0.5]];portConstraint=eastwest;rounded=0;shadow=0;html=0;" parent="zkfFHV4jXpPFQw0GAbJ--17" vertex="1">
          <mxGeometry y="130" width="160" height="26" as="geometry" />
        </mxCell>
        <mxCell id="zkfFHV4jXpPFQw0GAbJ--22" value="Country" style="text;align=left;verticalAlign=top;spacingLeft=4;spacingRight=4;overflow=hidden;rotatable=0;points=[[0,0.5],[1,0.5]];portConstraint=eastwest;rounded=0;shadow=0;html=0;" parent="zkfFHV4jXpPFQw0GAbJ--17" vertex="1">
          <mxGeometry y="156" width="160" height="26" as="geometry" />
        </mxCell>
        <mxCell id="zkfFHV4jXpPFQw0GAbJ--2" value="Phone Number" style="text;align=left;verticalAlign=top;spacingLeft=4;spacingRight=4;overflow=hidden;rotatable=0;points=[[0,0.5],[1,0.5]];portConstraint=eastwest;rounded=0;shadow=0;html=0;" parent="zkfFHV4jXpPFQw0GAbJ--17" vertex="1">
          <mxGeometry y="182" width="160" height="26" as="geometry" />
        </mxCell>
        <mxCell id="ZTpw4SSyMW5aXNLGTRIe-0" value="Fax Number" style="text;align=left;verticalAlign=top;spacingLeft=4;spacingRight=4;overflow=hidden;rotatable=0;points=[[0,0.5],[1,0.5]];portConstraint=eastwest;rounded=0;shadow=0;html=0;" parent="zkfFHV4jXpPFQw0GAbJ--17" vertex="1">
          <mxGeometry y="208" width="160" height="26" as="geometry" />
        </mxCell>
        <mxCell id="zkfFHV4jXpPFQw0GAbJ--1" value="Name" style="text;align=left;verticalAlign=top;spacingLeft=4;spacingRight=4;overflow=hidden;rotatable=0;points=[[0,0.5],[1,0.5]];portConstraint=eastwest;" parent="zkfFHV4jXpPFQw0GAbJ--17" vertex="1">
          <mxGeometry y="234" width="160" height="26" as="geometry" />
        </mxCell>
        <mxCell id="T8Tgvv-W22s7vSW0-p4a-0" value="gender" style="text;align=left;verticalAlign=top;spacingLeft=4;spacingRight=4;overflow=hidden;rotatable=0;points=[[0,0.5],[1,0.5]];portConstraint=eastwest;" vertex="1" parent="zkfFHV4jXpPFQw0GAbJ--17">
          <mxGeometry y="260" width="160" height="26" as="geometry" />
        </mxCell>
        <mxCell id="zkfFHV4jXpPFQw0GAbJ--3" value="Email Address" style="text;align=left;verticalAlign=top;spacingLeft=4;spacingRight=4;overflow=hidden;rotatable=0;points=[[0,0.5],[1,0.5]];portConstraint=eastwest;rounded=0;shadow=0;html=0;" parent="zkfFHV4jXpPFQw0GAbJ--17" vertex="1">
          <mxGeometry y="286" width="160" height="26" as="geometry" />
        </mxCell>
        <mxCell id="ZTpw4SSyMW5aXNLGTRIe-1" value="Date of birth" style="text;align=left;verticalAlign=top;spacingLeft=4;spacingRight=4;overflow=hidden;rotatable=0;points=[[0,0.5],[1,0.5]];portConstraint=eastwest;rounded=0;shadow=0;html=0;" parent="zkfFHV4jXpPFQw0GAbJ--17" vertex="1">
          <mxGeometry y="312" width="160" height="26" as="geometry" />
        </mxCell>
        <mxCell id="ZTpw4SSyMW5aXNLGTRIe-3" value="allergy Tag" style="text;align=left;verticalAlign=top;spacingLeft=4;spacingRight=4;overflow=hidden;rotatable=0;points=[[0,0.5],[1,0.5]];portConstraint=eastwest;rounded=0;shadow=0;html=0;fillColor=#e51400;fontColor=#ffffff;strokeColor=#B20000;" parent="zkfFHV4jXpPFQw0GAbJ--17" vertex="1">
          <mxGeometry y="338" width="160" height="26" as="geometry" />
        </mxCell>
        <mxCell id="zkfFHV4jXpPFQw0GAbJ--23" value="" style="line;html=1;strokeWidth=1;align=left;verticalAlign=middle;spacingTop=-1;spacingLeft=3;spacingRight=3;rotatable=0;labelPosition=right;points=[];portConstraint=eastwest;" parent="zkfFHV4jXpPFQw0GAbJ--17" vertex="1">
          <mxGeometry y="364" width="160" height="8" as="geometry" />
        </mxCell>
        <mxCell id="ZTpw4SSyMW5aXNLGTRIe-5" value="ALLERGIES" style="swimlane;fontStyle=0;childLayout=stackLayout;horizontal=1;startSize=30;horizontalStack=0;resizeParent=1;resizeParentMax=0;resizeLast=0;collapsible=1;marginBottom=0;whiteSpace=wrap;html=1;fillColor=#d5e8d4;strokeColor=#82b366;" parent="WIyWlLk6GJQsqaUBKTNV-1" vertex="1">
          <mxGeometry x="-2382" y="220" width="140" height="90" as="geometry" />
        </mxCell>
        <mxCell id="ZTpw4SSyMW5aXNLGTRIe-6" value="ID" style="text;strokeColor=none;fillColor=none;align=left;verticalAlign=middle;spacingLeft=4;spacingRight=4;overflow=hidden;points=[[0,0.5],[1,0.5]];portConstraint=eastwest;rotatable=0;whiteSpace=wrap;html=1;" parent="ZTpw4SSyMW5aXNLGTRIe-5" vertex="1">
          <mxGeometry y="30" width="140" height="30" as="geometry" />
        </mxCell>
        <mxCell id="ZTpw4SSyMW5aXNLGTRIe-7" value="NAME" style="text;strokeColor=none;fillColor=none;align=left;verticalAlign=middle;spacingLeft=4;spacingRight=4;overflow=hidden;points=[[0,0.5],[1,0.5]];portConstraint=eastwest;rotatable=0;whiteSpace=wrap;html=1;" parent="ZTpw4SSyMW5aXNLGTRIe-5" vertex="1">
          <mxGeometry y="60" width="140" height="30" as="geometry" />
        </mxCell>
        <mxCell id="ZTpw4SSyMW5aXNLGTRIe-9" value="LINK" style="swimlane;fontStyle=0;childLayout=stackLayout;horizontal=1;startSize=30;horizontalStack=0;resizeParent=1;resizeParentMax=0;resizeLast=0;collapsible=1;marginBottom=0;whiteSpace=wrap;html=1;fillColor=#647687;strokeColor=#314354;fontColor=#ffffff;" parent="WIyWlLk6GJQsqaUBKTNV-1" vertex="1">
          <mxGeometry x="-2065" y="217" width="140" height="90" as="geometry" />
        </mxCell>
        <mxCell id="ZTpw4SSyMW5aXNLGTRIe-10" value="ID Patient" style="text;strokeColor=none;fillColor=none;align=left;verticalAlign=middle;spacingLeft=4;spacingRight=4;overflow=hidden;points=[[0,0.5],[1,0.5]];portConstraint=eastwest;rotatable=0;whiteSpace=wrap;html=1;" parent="ZTpw4SSyMW5aXNLGTRIe-9" vertex="1">
          <mxGeometry y="30" width="140" height="30" as="geometry" />
        </mxCell>
        <mxCell id="ZTpw4SSyMW5aXNLGTRIe-11" value="ID Allergy" style="text;strokeColor=none;fillColor=none;align=left;verticalAlign=middle;spacingLeft=4;spacingRight=4;overflow=hidden;points=[[0,0.5],[1,0.5]];portConstraint=eastwest;rotatable=0;whiteSpace=wrap;html=1;" parent="ZTpw4SSyMW5aXNLGTRIe-9" vertex="1">
          <mxGeometry y="60" width="140" height="30" as="geometry" />
        </mxCell>
        <mxCell id="ZTpw4SSyMW5aXNLGTRIe-12" style="edgeStyle=orthogonalEdgeStyle;rounded=0;orthogonalLoop=1;jettySize=auto;html=1;entryX=0;entryY=0.5;entryDx=0;entryDy=0;" parent="WIyWlLk6GJQsqaUBKTNV-1" source="ZTpw4SSyMW5aXNLGTRIe-10" target="zkfFHV4jXpPFQw0GAbJ--18" edge="1">
          <mxGeometry relative="1" as="geometry" />
        </mxCell>
        <mxCell id="ZTpw4SSyMW5aXNLGTRIe-13" style="edgeStyle=orthogonalEdgeStyle;rounded=0;orthogonalLoop=1;jettySize=auto;html=1;entryX=0.986;entryY=0.144;entryDx=0;entryDy=0;entryPerimeter=0;" parent="WIyWlLk6GJQsqaUBKTNV-1" source="ZTpw4SSyMW5aXNLGTRIe-11" target="ZTpw4SSyMW5aXNLGTRIe-5" edge="1">
          <mxGeometry relative="1" as="geometry" />
        </mxCell>
        <mxCell id="ZTpw4SSyMW5aXNLGTRIe-14" value="Sites" style="swimlane;fontStyle=0;childLayout=stackLayout;horizontal=1;startSize=30;horizontalStack=0;resizeParent=1;resizeParentMax=0;resizeLast=0;collapsible=1;marginBottom=0;whiteSpace=wrap;html=1;fillColor=#d5e8d4;strokeColor=#82b366;" parent="WIyWlLk6GJQsqaUBKTNV-1" vertex="1">
          <mxGeometry x="193" y="-128" width="140" height="220" as="geometry" />
        </mxCell>
        <mxCell id="ZTpw4SSyMW5aXNLGTRIe-15" value="ID" style="text;strokeColor=none;fillColor=none;align=left;verticalAlign=middle;spacingLeft=4;spacingRight=4;overflow=hidden;points=[[0,0.5],[1,0.5]];portConstraint=eastwest;rotatable=0;whiteSpace=wrap;html=1;" parent="ZTpw4SSyMW5aXNLGTRIe-14" vertex="1">
          <mxGeometry y="30" width="140" height="30" as="geometry" />
        </mxCell>
        <mxCell id="ZTpw4SSyMW5aXNLGTRIe-16" value="NAME" style="text;strokeColor=none;fillColor=none;align=left;verticalAlign=middle;spacingLeft=4;spacingRight=4;overflow=hidden;points=[[0,0.5],[1,0.5]];portConstraint=eastwest;rotatable=0;whiteSpace=wrap;html=1;" parent="ZTpw4SSyMW5aXNLGTRIe-14" vertex="1">
          <mxGeometry y="60" width="140" height="30" as="geometry" />
        </mxCell>
        <mxCell id="ZTpw4SSyMW5aXNLGTRIe-21" value="City" style="text;align=left;verticalAlign=top;spacingLeft=4;spacingRight=4;overflow=hidden;rotatable=0;points=[[0,0.5],[1,0.5]];portConstraint=eastwest;rounded=0;shadow=0;html=0;" parent="ZTpw4SSyMW5aXNLGTRIe-14" vertex="1">
          <mxGeometry y="90" width="140" height="26" as="geometry" />
        </mxCell>
        <mxCell id="ZTpw4SSyMW5aXNLGTRIe-22" value="State" style="text;align=left;verticalAlign=top;spacingLeft=4;spacingRight=4;overflow=hidden;rotatable=0;points=[[0,0.5],[1,0.5]];portConstraint=eastwest;rounded=0;shadow=0;html=0;" parent="ZTpw4SSyMW5aXNLGTRIe-14" vertex="1">
          <mxGeometry y="116" width="140" height="26" as="geometry" />
        </mxCell>
        <mxCell id="ZTpw4SSyMW5aXNLGTRIe-25" value="Country&#xa;" style="text;align=left;verticalAlign=top;spacingLeft=4;spacingRight=4;overflow=hidden;rotatable=0;points=[[0,0.5],[1,0.5]];portConstraint=eastwest;rounded=0;shadow=0;html=0;" parent="ZTpw4SSyMW5aXNLGTRIe-14" vertex="1">
          <mxGeometry y="142" width="140" height="26" as="geometry" />
        </mxCell>
        <mxCell id="ZTpw4SSyMW5aXNLGTRIe-23" value="Phone Number" style="text;align=left;verticalAlign=top;spacingLeft=4;spacingRight=4;overflow=hidden;rotatable=0;points=[[0,0.5],[1,0.5]];portConstraint=eastwest;rounded=0;shadow=0;html=0;" parent="ZTpw4SSyMW5aXNLGTRIe-14" vertex="1">
          <mxGeometry y="168" width="140" height="26" as="geometry" />
        </mxCell>
        <mxCell id="ZTpw4SSyMW5aXNLGTRIe-26" value="is Active" style="text;align=left;verticalAlign=top;spacingLeft=4;spacingRight=4;overflow=hidden;rotatable=0;points=[[0,0.5],[1,0.5]];portConstraint=eastwest;rounded=0;shadow=0;html=0;fillColor=#e51400;fontColor=#ffffff;strokeColor=#B20000;" parent="ZTpw4SSyMW5aXNLGTRIe-14" vertex="1">
          <mxGeometry y="194" width="140" height="26" as="geometry" />
        </mxCell>
        <mxCell id="ZTpw4SSyMW5aXNLGTRIe-27" value="Services" style="swimlane;fontStyle=0;childLayout=stackLayout;horizontal=1;startSize=30;horizontalStack=0;resizeParent=1;resizeParentMax=0;resizeLast=0;collapsible=1;marginBottom=0;whiteSpace=wrap;html=1;fillColor=#d5e8d4;strokeColor=#82b366;" parent="WIyWlLk6GJQsqaUBKTNV-1" vertex="1">
          <mxGeometry x="-167" y="16" width="140" height="172" as="geometry" />
        </mxCell>
        <mxCell id="ZTpw4SSyMW5aXNLGTRIe-28" value="ID" style="text;strokeColor=none;fillColor=none;align=left;verticalAlign=middle;spacingLeft=4;spacingRight=4;overflow=hidden;points=[[0,0.5],[1,0.5]];portConstraint=eastwest;rotatable=0;whiteSpace=wrap;html=1;" parent="ZTpw4SSyMW5aXNLGTRIe-27" vertex="1">
          <mxGeometry y="30" width="140" height="30" as="geometry" />
        </mxCell>
        <mxCell id="ZTpw4SSyMW5aXNLGTRIe-29" value="NAME" style="text;strokeColor=none;fillColor=none;align=left;verticalAlign=middle;spacingLeft=4;spacingRight=4;overflow=hidden;points=[[0,0.5],[1,0.5]];portConstraint=eastwest;rotatable=0;whiteSpace=wrap;html=1;" parent="ZTpw4SSyMW5aXNLGTRIe-27" vertex="1">
          <mxGeometry y="60" width="140" height="30" as="geometry" />
        </mxCell>
        <mxCell id="ZTpw4SSyMW5aXNLGTRIe-35" value="Site ID" style="text;strokeColor=#B09500;fillColor=#e3c800;align=left;verticalAlign=middle;spacingLeft=4;spacingRight=4;overflow=hidden;points=[[0,0.5],[1,0.5]];portConstraint=eastwest;rotatable=0;whiteSpace=wrap;html=1;fontColor=#000000;" parent="ZTpw4SSyMW5aXNLGTRIe-27" vertex="1">
          <mxGeometry y="90" width="140" height="30" as="geometry" />
        </mxCell>
        <mxCell id="ZTpw4SSyMW5aXNLGTRIe-33" value="Phone Number" style="text;align=left;verticalAlign=top;spacingLeft=4;spacingRight=4;overflow=hidden;rotatable=0;points=[[0,0.5],[1,0.5]];portConstraint=eastwest;rounded=0;shadow=0;html=0;" parent="ZTpw4SSyMW5aXNLGTRIe-27" vertex="1">
          <mxGeometry y="120" width="140" height="26" as="geometry" />
        </mxCell>
        <mxCell id="ZTpw4SSyMW5aXNLGTRIe-34" value="is Active" style="text;align=left;verticalAlign=top;spacingLeft=4;spacingRight=4;overflow=hidden;rotatable=0;points=[[0,0.5],[1,0.5]];portConstraint=eastwest;rounded=0;shadow=0;html=0;fillColor=#e51400;fontColor=#ffffff;strokeColor=#B20000;" parent="ZTpw4SSyMW5aXNLGTRIe-27" vertex="1">
          <mxGeometry y="146" width="140" height="26" as="geometry" />
        </mxCell>
        <mxCell id="ZTpw4SSyMW5aXNLGTRIe-36" style="edgeStyle=orthogonalEdgeStyle;rounded=0;orthogonalLoop=1;jettySize=auto;html=1;entryX=0;entryY=0.5;entryDx=0;entryDy=0;" parent="WIyWlLk6GJQsqaUBKTNV-1" source="ZTpw4SSyMW5aXNLGTRIe-35" target="ZTpw4SSyMW5aXNLGTRIe-15" edge="1">
          <mxGeometry relative="1" as="geometry" />
        </mxCell>
        <mxCell id="ZTpw4SSyMW5aXNLGTRIe-41" value="&lt;span style=&quot;color: rgb(0, 0, 0);&quot;&gt;Modalities&lt;/span&gt;" style="swimlane;fontStyle=0;childLayout=stackLayout;horizontal=1;startSize=30;horizontalStack=0;resizeParent=1;resizeParentMax=0;resizeLast=0;collapsible=1;marginBottom=0;whiteSpace=wrap;html=1;fillColor=#d5e8d4;strokeColor=#82b366;gradientColor=#97d077;" parent="WIyWlLk6GJQsqaUBKTNV-1" vertex="1">
          <mxGeometry x="-375" y="174" width="140" height="176" as="geometry" />
        </mxCell>
        <mxCell id="ZTpw4SSyMW5aXNLGTRIe-43" value="ID Modality" style="text;strokeColor=none;fillColor=none;align=left;verticalAlign=middle;spacingLeft=4;spacingRight=4;overflow=hidden;points=[[0,0.5],[1,0.5]];portConstraint=eastwest;rotatable=0;whiteSpace=wrap;html=1;" parent="ZTpw4SSyMW5aXNLGTRIe-41" vertex="1">
          <mxGeometry y="30" width="140" height="30" as="geometry" />
        </mxCell>
        <mxCell id="ZTpw4SSyMW5aXNLGTRIe-42" value="ID Service" style="text;strokeColor=none;fillColor=none;align=left;verticalAlign=middle;spacingLeft=4;spacingRight=4;overflow=hidden;points=[[0,0.5],[1,0.5]];portConstraint=eastwest;rotatable=0;whiteSpace=wrap;html=1;" parent="ZTpw4SSyMW5aXNLGTRIe-41" vertex="1">
          <mxGeometry y="60" width="140" height="30" as="geometry" />
        </mxCell>
        <mxCell id="T8Tgvv-W22s7vSW0-p4a-7" value="NAME" style="text;strokeColor=none;fillColor=none;align=left;verticalAlign=middle;spacingLeft=4;spacingRight=4;overflow=hidden;points=[[0,0.5],[1,0.5]];portConstraint=eastwest;rotatable=0;whiteSpace=wrap;html=1;" vertex="1" parent="ZTpw4SSyMW5aXNLGTRIe-41">
          <mxGeometry y="90" width="140" height="30" as="geometry" />
        </mxCell>
        <mxCell id="T8Tgvv-W22s7vSW0-p4a-8" value="Short NAME" style="text;strokeColor=none;fillColor=none;align=left;verticalAlign=middle;spacingLeft=4;spacingRight=4;overflow=hidden;points=[[0,0.5],[1,0.5]];portConstraint=eastwest;rotatable=0;whiteSpace=wrap;html=1;" vertex="1" parent="ZTpw4SSyMW5aXNLGTRIe-41">
          <mxGeometry y="120" width="140" height="30" as="geometry" />
        </mxCell>
        <mxCell id="ZTpw4SSyMW5aXNLGTRIe-46" value="is Active" style="text;align=left;verticalAlign=top;spacingLeft=4;spacingRight=4;overflow=hidden;rotatable=0;points=[[0,0.5],[1,0.5]];portConstraint=eastwest;rounded=0;shadow=0;html=0;fillColor=#e51400;fontColor=#ffffff;strokeColor=#B20000;" parent="ZTpw4SSyMW5aXNLGTRIe-41" vertex="1">
          <mxGeometry y="150" width="140" height="26" as="geometry" />
        </mxCell>
        <mxCell id="ZTpw4SSyMW5aXNLGTRIe-44" style="edgeStyle=orthogonalEdgeStyle;rounded=0;orthogonalLoop=1;jettySize=auto;html=1;entryX=0;entryY=0.5;entryDx=0;entryDy=0;" parent="WIyWlLk6GJQsqaUBKTNV-1" source="ZTpw4SSyMW5aXNLGTRIe-42" target="ZTpw4SSyMW5aXNLGTRIe-28" edge="1">
          <mxGeometry relative="1" as="geometry" />
        </mxCell>
        <mxCell id="ZTpw4SSyMW5aXNLGTRIe-49" style="edgeStyle=orthogonalEdgeStyle;rounded=0;orthogonalLoop=1;jettySize=auto;html=1;entryX=0.75;entryY=1;entryDx=0;entryDy=0;" parent="WIyWlLk6GJQsqaUBKTNV-1" source="ZTpw4SSyMW5aXNLGTRIe-48" target="ZTpw4SSyMW5aXNLGTRIe-41" edge="1">
          <mxGeometry relative="1" as="geometry" />
        </mxCell>
        <mxCell id="ZTpw4SSyMW5aXNLGTRIe-48" value="&lt;h1 style=&quot;margin-top: 0px;&quot;&gt;Optional&lt;/h1&gt;&lt;p&gt;u can add the working hours probably we need it in the appointments&amp;nbsp;&lt;/p&gt;" style="text;html=1;whiteSpace=wrap;overflow=hidden;rounded=0;fillColor=#1ba1e2;strokeColor=#006EAF;fontColor=#ffffff;gradientColor=default;" parent="WIyWlLk6GJQsqaUBKTNV-1" vertex="1">
          <mxGeometry x="-474" y="449" width="180" height="120" as="geometry" />
        </mxCell>
        <mxCell id="ZTpw4SSyMW5aXNLGTRIe-64" value="procedures" style="swimlane;fontStyle=0;childLayout=stackLayout;horizontal=1;startSize=30;horizontalStack=0;resizeParent=1;resizeParentMax=0;resizeLast=0;collapsible=1;marginBottom=0;whiteSpace=wrap;html=1;fillColor=#d5e8d4;strokeColor=#82b366;" parent="WIyWlLk6GJQsqaUBKTNV-1" vertex="1">
          <mxGeometry x="-874" y="16" width="140" height="120" as="geometry" />
        </mxCell>
        <mxCell id="ZTpw4SSyMW5aXNLGTRIe-65" value="ID" style="text;strokeColor=none;fillColor=none;align=left;verticalAlign=middle;spacingLeft=4;spacingRight=4;overflow=hidden;points=[[0,0.5],[1,0.5]];portConstraint=eastwest;rotatable=0;whiteSpace=wrap;html=1;" parent="ZTpw4SSyMW5aXNLGTRIe-64" vertex="1">
          <mxGeometry y="30" width="140" height="30" as="geometry" />
        </mxCell>
        <mxCell id="ZTpw4SSyMW5aXNLGTRIe-66" value="NAME" style="text;strokeColor=none;fillColor=none;align=left;verticalAlign=middle;spacingLeft=4;spacingRight=4;overflow=hidden;points=[[0,0.5],[1,0.5]];portConstraint=eastwest;rotatable=0;whiteSpace=wrap;html=1;" parent="ZTpw4SSyMW5aXNLGTRIe-64" vertex="1">
          <mxGeometry y="60" width="140" height="30" as="geometry" />
        </mxCell>
        <mxCell id="ZTpw4SSyMW5aXNLGTRIe-67" value="description" style="text;strokeColor=none;fillColor=none;align=left;verticalAlign=middle;spacingLeft=4;spacingRight=4;overflow=hidden;points=[[0,0.5],[1,0.5]];portConstraint=eastwest;rotatable=0;whiteSpace=wrap;html=1;" parent="ZTpw4SSyMW5aXNLGTRIe-64" vertex="1">
          <mxGeometry y="90" width="140" height="30" as="geometry" />
        </mxCell>
        <mxCell id="ZTpw4SSyMW5aXNLGTRIe-101" style="edgeStyle=orthogonalEdgeStyle;rounded=0;orthogonalLoop=1;jettySize=auto;html=1;" parent="WIyWlLk6GJQsqaUBKTNV-1" source="ZTpw4SSyMW5aXNLGTRIe-69" target="ZTpw4SSyMW5aXNLGTRIe-95" edge="1">
          <mxGeometry relative="1" as="geometry">
            <Array as="points">
              <mxPoint x="-1178" y="813" />
              <mxPoint x="-1358" y="813" />
            </Array>
          </mxGeometry>
        </mxCell>
        <mxCell id="ZTpw4SSyMW5aXNLGTRIe-69" value="exam" style="swimlane;fontStyle=0;align=center;verticalAlign=top;childLayout=stackLayout;horizontal=1;startSize=26;horizontalStack=0;resizeParent=1;resizeLast=0;collapsible=1;marginBottom=0;rounded=0;shadow=0;strokeWidth=1;swimlaneFillColor=none;glass=0;fillColor=#d5e8d4;gradientColor=#97d077;strokeColor=#82b366;" parent="WIyWlLk6GJQsqaUBKTNV-1" vertex="1">
          <mxGeometry x="-1298" y="317" width="241" height="476" as="geometry">
            <mxRectangle x="550" y="140" width="160" height="26" as="alternateBounds" />
          </mxGeometry>
        </mxCell>
        <mxCell id="T8Tgvv-W22s7vSW0-p4a-20" style="edgeStyle=orthogonalEdgeStyle;rounded=0;orthogonalLoop=1;jettySize=auto;html=1;" edge="1" parent="ZTpw4SSyMW5aXNLGTRIe-69" source="ZTpw4SSyMW5aXNLGTRIe-70">
          <mxGeometry relative="1" as="geometry">
            <mxPoint x="-65" y="39" as="targetPoint" />
          </mxGeometry>
        </mxCell>
        <mxCell id="ZTpw4SSyMW5aXNLGTRIe-70" value="ID : String" style="text;align=left;verticalAlign=top;spacingLeft=4;spacingRight=4;overflow=hidden;rotatable=0;points=[[0,0.5],[1,0.5]];portConstraint=eastwest;" parent="ZTpw4SSyMW5aXNLGTRIe-69" vertex="1">
          <mxGeometry y="26" width="241" height="26" as="geometry" />
        </mxCell>
        <mxCell id="ZTpw4SSyMW5aXNLGTRIe-71" value="Creation Date : Date" style="text;align=left;verticalAlign=top;spacingLeft=4;spacingRight=4;overflow=hidden;rotatable=0;points=[[0,0.5],[1,0.5]];portConstraint=eastwest;rounded=0;shadow=0;html=0;fillColor=#1ba1e2;fontColor=#ffffff;strokeColor=#006EAF;" parent="ZTpw4SSyMW5aXNLGTRIe-69" vertex="1">
          <mxGeometry y="52" width="241" height="26" as="geometry" />
        </mxCell>
        <mxCell id="ZTpw4SSyMW5aXNLGTRIe-72" value="Procedure ID" style="text;align=left;verticalAlign=top;spacingLeft=4;spacingRight=4;overflow=hidden;rotatable=0;points=[[0,0.5],[1,0.5]];portConstraint=eastwest;rounded=0;shadow=0;html=0;fillColor=#e3c800;fontColor=#000000;strokeColor=#B09500;" parent="ZTpw4SSyMW5aXNLGTRIe-69" vertex="1">
          <mxGeometry y="78" width="241" height="26" as="geometry" />
        </mxCell>
        <mxCell id="ZTpw4SSyMW5aXNLGTRIe-73" value="Weight" style="text;align=left;verticalAlign=top;spacingLeft=4;spacingRight=4;overflow=hidden;rotatable=0;points=[[0,0.5],[1,0.5]];portConstraint=eastwest;rounded=0;shadow=0;html=0;" parent="ZTpw4SSyMW5aXNLGTRIe-69" vertex="1">
          <mxGeometry y="104" width="241" height="26" as="geometry" />
        </mxCell>
        <mxCell id="T8Tgvv-W22s7vSW0-p4a-1" value="Doctor ID" style="text;align=left;verticalAlign=top;spacingLeft=4;spacingRight=4;overflow=hidden;rotatable=0;points=[[0,0.5],[1,0.5]];portConstraint=eastwest;rounded=0;shadow=0;html=0;fillColor=#e3c800;fontColor=#000000;strokeColor=#B09500;" vertex="1" parent="ZTpw4SSyMW5aXNLGTRIe-69">
          <mxGeometry y="130" width="241" height="26" as="geometry" />
        </mxCell>
        <mxCell id="T8Tgvv-W22s7vSW0-p4a-2" value="Prescriber" style="text;align=left;verticalAlign=top;spacingLeft=4;spacingRight=4;overflow=hidden;rotatable=0;points=[[0,0.5],[1,0.5]];portConstraint=eastwest;rounded=0;shadow=0;html=0;" vertex="1" parent="ZTpw4SSyMW5aXNLGTRIe-69">
          <mxGeometry y="156" width="241" height="26" as="geometry" />
        </mxCell>
        <mxCell id="ZTpw4SSyMW5aXNLGTRIe-93" value="Patient ID" style="text;align=left;verticalAlign=top;spacingLeft=4;spacingRight=4;overflow=hidden;rotatable=0;points=[[0,0.5],[1,0.5]];portConstraint=eastwest;rounded=0;shadow=0;html=0;fillColor=#e3c800;fontColor=#000000;strokeColor=#B09500;" parent="ZTpw4SSyMW5aXNLGTRIe-69" vertex="1">
          <mxGeometry y="182" width="241" height="26" as="geometry" />
        </mxCell>
        <mxCell id="ZTpw4SSyMW5aXNLGTRIe-81" value="status Tag" style="text;align=left;verticalAlign=top;spacingLeft=4;spacingRight=4;overflow=hidden;rotatable=0;points=[[0,0.5],[1,0.5]];portConstraint=eastwest;rounded=0;shadow=0;html=0;fillColor=#e51400;fontColor=#ffffff;strokeColor=#B20000;" parent="ZTpw4SSyMW5aXNLGTRIe-69" vertex="1">
          <mxGeometry y="208" width="241" height="26" as="geometry" />
        </mxCell>
        <mxCell id="ZTpw4SSyMW5aXNLGTRIe-84" value="urgent Tag" style="text;align=left;verticalAlign=top;spacingLeft=4;spacingRight=4;overflow=hidden;rotatable=0;points=[[0,0.5],[1,0.5]];portConstraint=eastwest;rounded=0;shadow=0;html=0;fillColor=#e51400;fontColor=#ffffff;strokeColor=#B20000;" parent="ZTpw4SSyMW5aXNLGTRIe-69" vertex="1">
          <mxGeometry y="234" width="241" height="26" as="geometry" />
        </mxCell>
        <mxCell id="ZTpw4SSyMW5aXNLGTRIe-85" value="agitated Tag" style="text;align=left;verticalAlign=top;spacingLeft=4;spacingRight=4;overflow=hidden;rotatable=0;points=[[0,0.5],[1,0.5]];portConstraint=eastwest;rounded=0;shadow=0;html=0;fillColor=#e51400;fontColor=#ffffff;strokeColor=#B20000;" parent="ZTpw4SSyMW5aXNLGTRIe-69" vertex="1">
          <mxGeometry y="260" width="241" height="26" as="geometry" />
        </mxCell>
        <mxCell id="ZTpw4SSyMW5aXNLGTRIe-82" value="" style="line;html=1;strokeWidth=1;align=left;verticalAlign=middle;spacingTop=-1;spacingLeft=3;spacingRight=3;rotatable=0;labelPosition=right;points=[];portConstraint=eastwest;" parent="ZTpw4SSyMW5aXNLGTRIe-69" vertex="1">
          <mxGeometry y="286" width="241" height="8" as="geometry" />
        </mxCell>
        <mxCell id="ZTpw4SSyMW5aXNLGTRIe-94" style="edgeStyle=orthogonalEdgeStyle;rounded=0;orthogonalLoop=1;jettySize=auto;html=1;entryX=1.004;entryY=0.056;entryDx=0;entryDy=0;entryPerimeter=0;" parent="WIyWlLk6GJQsqaUBKTNV-1" target="zkfFHV4jXpPFQw0GAbJ--17" edge="1">
          <mxGeometry relative="1" as="geometry">
            <mxPoint x="-1275.08" y="533.24" as="sourcePoint" />
            <mxPoint x="-1643.9999999999998" y="364.00400000000013" as="targetPoint" />
            <Array as="points">
              <mxPoint x="-1536" y="533" />
              <mxPoint x="-1536" y="350" />
            </Array>
          </mxGeometry>
        </mxCell>
        <mxCell id="ZTpw4SSyMW5aXNLGTRIe-95" value="reports" style="swimlane;fontStyle=0;childLayout=stackLayout;horizontal=1;startSize=30;horizontalStack=0;resizeParent=1;resizeParentMax=0;resizeLast=0;collapsible=1;marginBottom=0;whiteSpace=wrap;html=1;fillColor=#d5e8d4;strokeColor=#82b366;" parent="WIyWlLk6GJQsqaUBKTNV-1" vertex="1">
          <mxGeometry x="-1428" y="831" width="140" height="180" as="geometry" />
        </mxCell>
        <mxCell id="ZTpw4SSyMW5aXNLGTRIe-96" value="ID" style="text;strokeColor=none;fillColor=none;align=left;verticalAlign=middle;spacingLeft=4;spacingRight=4;overflow=hidden;points=[[0,0.5],[1,0.5]];portConstraint=eastwest;rotatable=0;whiteSpace=wrap;html=1;" parent="ZTpw4SSyMW5aXNLGTRIe-95" vertex="1">
          <mxGeometry y="30" width="140" height="30" as="geometry" />
        </mxCell>
        <mxCell id="ZTpw4SSyMW5aXNLGTRIe-97" value="Creation Date" style="text;strokeColor=#006EAF;fillColor=#1ba1e2;align=left;verticalAlign=middle;spacingLeft=4;spacingRight=4;overflow=hidden;points=[[0,0.5],[1,0.5]];portConstraint=eastwest;rotatable=0;whiteSpace=wrap;html=1;fontColor=#ffffff;" parent="ZTpw4SSyMW5aXNLGTRIe-95" vertex="1">
          <mxGeometry y="60" width="140" height="30" as="geometry" />
        </mxCell>
        <mxCell id="ZTpw4SSyMW5aXNLGTRIe-98" value="Last Modification" style="text;strokeColor=#006EAF;fillColor=#1ba1e2;align=left;verticalAlign=middle;spacingLeft=4;spacingRight=4;overflow=hidden;points=[[0,0.5],[1,0.5]];portConstraint=eastwest;rotatable=0;whiteSpace=wrap;html=1;fontColor=#ffffff;" parent="ZTpw4SSyMW5aXNLGTRIe-95" vertex="1">
          <mxGeometry y="90" width="140" height="30" as="geometry" />
        </mxCell>
        <mxCell id="ZTpw4SSyMW5aXNLGTRIe-100" value="Content" style="text;strokeColor=none;fillColor=none;align=left;verticalAlign=middle;spacingLeft=4;spacingRight=4;overflow=hidden;points=[[0,0.5],[1,0.5]];portConstraint=eastwest;rotatable=0;whiteSpace=wrap;html=1;" parent="ZTpw4SSyMW5aXNLGTRIe-95" vertex="1">
          <mxGeometry y="120" width="140" height="30" as="geometry" />
        </mxCell>
        <mxCell id="ZTpw4SSyMW5aXNLGTRIe-99" value="Printed tag" style="text;strokeColor=#B20000;fillColor=#e51400;align=left;verticalAlign=middle;spacingLeft=4;spacingRight=4;overflow=hidden;points=[[0,0.5],[1,0.5]];portConstraint=eastwest;rotatable=0;whiteSpace=wrap;html=1;fontColor=#ffffff;" parent="ZTpw4SSyMW5aXNLGTRIe-95" vertex="1">
          <mxGeometry y="150" width="140" height="30" as="geometry" />
        </mxCell>
        <mxCell id="ZTpw4SSyMW5aXNLGTRIe-102" value="voice records" style="swimlane;fontStyle=0;childLayout=stackLayout;horizontal=1;startSize=30;horizontalStack=0;resizeParent=1;resizeParentMax=0;resizeLast=0;collapsible=1;marginBottom=0;whiteSpace=wrap;html=1;fillColor=#d5e8d4;strokeColor=#82b366;" parent="WIyWlLk6GJQsqaUBKTNV-1" vertex="1">
          <mxGeometry x="-805" y="779" width="140" height="150" as="geometry" />
        </mxCell>
        <mxCell id="ZTpw4SSyMW5aXNLGTRIe-103" value="ID" style="text;strokeColor=none;fillColor=none;align=left;verticalAlign=middle;spacingLeft=4;spacingRight=4;overflow=hidden;points=[[0,0.5],[1,0.5]];portConstraint=eastwest;rotatable=0;whiteSpace=wrap;html=1;" parent="ZTpw4SSyMW5aXNLGTRIe-102" vertex="1">
          <mxGeometry y="30" width="140" height="30" as="geometry" />
        </mxCell>
        <mxCell id="ZTpw4SSyMW5aXNLGTRIe-104" value="recorded Date" style="text;strokeColor=none;fillColor=none;align=left;verticalAlign=middle;spacingLeft=4;spacingRight=4;overflow=hidden;points=[[0,0.5],[1,0.5]];portConstraint=eastwest;rotatable=0;whiteSpace=wrap;html=1;" parent="ZTpw4SSyMW5aXNLGTRIe-102" vertex="1">
          <mxGeometry y="60" width="140" height="30" as="geometry" />
        </mxCell>
        <mxCell id="ZTpw4SSyMW5aXNLGTRIe-105" value="duration" style="text;strokeColor=#006EAF;fillColor=#1ba1e2;align=left;verticalAlign=middle;spacingLeft=4;spacingRight=4;overflow=hidden;points=[[0,0.5],[1,0.5]];portConstraint=eastwest;rotatable=0;whiteSpace=wrap;html=1;fontColor=#ffffff;" parent="ZTpw4SSyMW5aXNLGTRIe-102" vertex="1">
          <mxGeometry y="90" width="140" height="30" as="geometry" />
        </mxCell>
        <mxCell id="ZTpw4SSyMW5aXNLGTRIe-106" value="Content" style="text;strokeColor=none;fillColor=none;align=left;verticalAlign=middle;spacingLeft=4;spacingRight=4;overflow=hidden;points=[[0,0.5],[1,0.5]];portConstraint=eastwest;rotatable=0;whiteSpace=wrap;html=1;" parent="ZTpw4SSyMW5aXNLGTRIe-102" vertex="1">
          <mxGeometry y="120" width="140" height="30" as="geometry" />
        </mxCell>
        <mxCell id="ZTpw4SSyMW5aXNLGTRIe-109" style="edgeStyle=orthogonalEdgeStyle;rounded=0;orthogonalLoop=1;jettySize=auto;html=1;entryX=0.442;entryY=0.011;entryDx=0;entryDy=0;entryPerimeter=0;" parent="WIyWlLk6GJQsqaUBKTNV-1" target="ZTpw4SSyMW5aXNLGTRIe-102" edge="1">
          <mxGeometry relative="1" as="geometry">
            <mxPoint x="-1220" y="793" as="sourcePoint" />
            <Array as="points">
              <mxPoint x="-1218" y="793" />
              <mxPoint x="-1218" y="813" />
              <mxPoint x="-978" y="813" />
              <mxPoint x="-978" y="731" />
              <mxPoint x="-743" y="731" />
            </Array>
          </mxGeometry>
        </mxCell>
        <mxCell id="T8Tgvv-W22s7vSW0-p4a-6" style="edgeStyle=orthogonalEdgeStyle;rounded=0;orthogonalLoop=1;jettySize=auto;html=1;entryX=0.5;entryY=0;entryDx=0;entryDy=0;" edge="1" parent="WIyWlLk6GJQsqaUBKTNV-1" source="ZTpw4SSyMW5aXNLGTRIe-65" target="ZTpw4SSyMW5aXNLGTRIe-41">
          <mxGeometry relative="1" as="geometry" />
        </mxCell>
        <mxCell id="T8Tgvv-W22s7vSW0-p4a-21" value="index" style="shape=process;whiteSpace=wrap;html=1;backgroundOutline=1;rotation=0;" vertex="1" parent="WIyWlLk6GJQsqaUBKTNV-1">
          <mxGeometry x="-1442" y="322" width="84" height="60" as="geometry" />
        </mxCell>
        <mxCell id="T8Tgvv-W22s7vSW0-p4a-25" value="" style="edgeStyle=orthogonalEdgeStyle;rounded=0;orthogonalLoop=1;jettySize=auto;html=1;entryX=0;entryY=0.25;entryDx=0;entryDy=0;fillColor=#e51400;strokeColor=#B20000;" edge="1" parent="WIyWlLk6GJQsqaUBKTNV-1" source="zkfFHV4jXpPFQw0GAbJ--17" target="T8Tgvv-W22s7vSW0-p4a-33">
          <mxGeometry relative="1" as="geometry">
            <mxPoint x="-1753" y="329" as="sourcePoint" />
            <mxPoint x="-1555" y="94" as="targetPoint" />
            <Array as="points">
              <mxPoint x="-1753" y="117" />
              <mxPoint x="-1645" y="117" />
              <mxPoint x="-1645" y="127" />
            </Array>
          </mxGeometry>
        </mxCell>
        <mxCell id="T8Tgvv-W22s7vSW0-p4a-27" style="edgeStyle=orthogonalEdgeStyle;rounded=0;orthogonalLoop=1;jettySize=auto;html=1;" edge="1" parent="WIyWlLk6GJQsqaUBKTNV-1" source="T8Tgvv-W22s7vSW0-p4a-26">
          <mxGeometry relative="1" as="geometry">
            <mxPoint x="-1495" y="124" as="targetPoint" />
          </mxGeometry>
        </mxCell>
        <mxCell id="T8Tgvv-W22s7vSW0-p4a-26" value="program" style="shape=cube;whiteSpace=wrap;html=1;boundedLbl=1;backgroundOutline=1;darkOpacity=0.05;darkOpacity2=0.1;fillColor=#d5e8d4;gradientColor=#97d077;strokeColor=#82b366;" vertex="1" parent="WIyWlLk6GJQsqaUBKTNV-1">
          <mxGeometry x="-1425" y="84" width="120" height="80" as="geometry" />
        </mxCell>
        <mxCell id="T8Tgvv-W22s7vSW0-p4a-31" value="Actor" style="shape=umlActor;verticalLabelPosition=bottom;verticalAlign=top;html=1;outlineConnect=0;" vertex="1" parent="WIyWlLk6GJQsqaUBKTNV-1">
          <mxGeometry x="-1130" y="228" width="30" height="60" as="geometry" />
        </mxCell>
        <mxCell id="T8Tgvv-W22s7vSW0-p4a-32" value="alert" style="rounded=1;whiteSpace=wrap;html=1;fillColor=#ffcd28;gradientColor=#ffa500;strokeColor=#d79b00;" vertex="1" parent="WIyWlLk6GJQsqaUBKTNV-1">
          <mxGeometry x="-1262.5" y="127" width="82" height="41" as="geometry" />
        </mxCell>
        <mxCell id="T8Tgvv-W22s7vSW0-p4a-33" value="appointment" style="swimlane;fontStyle=0;childLayout=stackLayout;horizontal=1;startSize=30;horizontalStack=0;resizeParent=1;resizeParentMax=0;resizeLast=0;collapsible=1;marginBottom=0;whiteSpace=wrap;html=1;" vertex="1" parent="WIyWlLk6GJQsqaUBKTNV-1">
          <mxGeometry x="-1631" y="97" width="140" height="242" as="geometry" />
        </mxCell>
        <mxCell id="T8Tgvv-W22s7vSW0-p4a-34" value="ID" style="text;strokeColor=none;fillColor=none;align=left;verticalAlign=middle;spacingLeft=4;spacingRight=4;overflow=hidden;points=[[0,0.5],[1,0.5]];portConstraint=eastwest;rotatable=0;whiteSpace=wrap;html=1;" vertex="1" parent="T8Tgvv-W22s7vSW0-p4a-33">
          <mxGeometry y="30" width="140" height="30" as="geometry" />
        </mxCell>
        <mxCell id="T8Tgvv-W22s7vSW0-p4a-40" value="Procedure ID" style="text;align=left;verticalAlign=top;spacingLeft=4;spacingRight=4;overflow=hidden;rotatable=0;points=[[0,0.5],[1,0.5]];portConstraint=eastwest;rounded=0;shadow=0;html=0;fillColor=#e3c800;fontColor=#000000;strokeColor=#B09500;" vertex="1" parent="T8Tgvv-W22s7vSW0-p4a-33">
          <mxGeometry y="60" width="140" height="26" as="geometry" />
        </mxCell>
        <mxCell id="T8Tgvv-W22s7vSW0-p4a-46" value="agitated Tag" style="text;align=left;verticalAlign=top;spacingLeft=4;spacingRight=4;overflow=hidden;rotatable=0;points=[[0,0.5],[1,0.5]];portConstraint=eastwest;rounded=0;shadow=0;html=0;fillColor=#e51400;fontColor=#ffffff;strokeColor=#B20000;" vertex="1" parent="T8Tgvv-W22s7vSW0-p4a-33">
          <mxGeometry y="86" width="140" height="26" as="geometry" />
        </mxCell>
        <mxCell id="T8Tgvv-W22s7vSW0-p4a-45" value="urgent Tag" style="text;align=left;verticalAlign=top;spacingLeft=4;spacingRight=4;overflow=hidden;rotatable=0;points=[[0,0.5],[1,0.5]];portConstraint=eastwest;rounded=0;shadow=0;html=0;fillColor=#e51400;fontColor=#ffffff;strokeColor=#B20000;" vertex="1" parent="T8Tgvv-W22s7vSW0-p4a-33">
          <mxGeometry y="112" width="140" height="26" as="geometry" />
        </mxCell>
        <mxCell id="T8Tgvv-W22s7vSW0-p4a-44" value="status Tag" style="text;align=left;verticalAlign=top;spacingLeft=4;spacingRight=4;overflow=hidden;rotatable=0;points=[[0,0.5],[1,0.5]];portConstraint=eastwest;rounded=0;shadow=0;html=0;fillColor=#e51400;fontColor=#ffffff;strokeColor=#B20000;" vertex="1" parent="T8Tgvv-W22s7vSW0-p4a-33">
          <mxGeometry y="138" width="140" height="26" as="geometry" />
        </mxCell>
        <mxCell id="T8Tgvv-W22s7vSW0-p4a-43" value="Doctor ID" style="text;align=left;verticalAlign=top;spacingLeft=4;spacingRight=4;overflow=hidden;rotatable=0;points=[[0,0.5],[1,0.5]];portConstraint=eastwest;rounded=0;shadow=0;html=0;fillColor=#e3c800;fontColor=#000000;strokeColor=#B09500;" vertex="1" parent="T8Tgvv-W22s7vSW0-p4a-33">
          <mxGeometry y="164" width="140" height="26" as="geometry" />
        </mxCell>
        <mxCell id="T8Tgvv-W22s7vSW0-p4a-42" value="Prescriber" style="text;align=left;verticalAlign=top;spacingLeft=4;spacingRight=4;overflow=hidden;rotatable=0;points=[[0,0.5],[1,0.5]];portConstraint=eastwest;rounded=0;shadow=0;html=0;" vertex="1" parent="T8Tgvv-W22s7vSW0-p4a-33">
          <mxGeometry y="190" width="140" height="26" as="geometry" />
        </mxCell>
        <mxCell id="T8Tgvv-W22s7vSW0-p4a-41" value="Weight" style="text;align=left;verticalAlign=top;spacingLeft=4;spacingRight=4;overflow=hidden;rotatable=0;points=[[0,0.5],[1,0.5]];portConstraint=eastwest;rounded=0;shadow=0;html=0;" vertex="1" parent="T8Tgvv-W22s7vSW0-p4a-33">
          <mxGeometry y="216" width="140" height="26" as="geometry" />
        </mxCell>
        <mxCell id="T8Tgvv-W22s7vSW0-p4a-38" style="edgeStyle=orthogonalEdgeStyle;rounded=0;orthogonalLoop=1;jettySize=auto;html=1;entryX=0;entryY=0.5;entryDx=0;entryDy=0;" edge="1" parent="WIyWlLk6GJQsqaUBKTNV-1" source="T8Tgvv-W22s7vSW0-p4a-37" target="T8Tgvv-W22s7vSW0-p4a-34">
          <mxGeometry relative="1" as="geometry" />
        </mxCell>
        <mxCell id="T8Tgvv-W22s7vSW0-p4a-37" value="" style="rounded=1;whiteSpace=wrap;html=1;" vertex="1" parent="WIyWlLk6GJQsqaUBKTNV-1">
          <mxGeometry x="-1788" y="37" width="120" height="60" as="geometry" />
        </mxCell>
        <mxCell id="T8Tgvv-W22s7vSW0-p4a-47" style="edgeStyle=orthogonalEdgeStyle;rounded=0;orthogonalLoop=1;jettySize=auto;html=1;entryX=0;entryY=0;entryDx=0;entryDy=0;" edge="1" parent="WIyWlLk6GJQsqaUBKTNV-1" source="ZTpw4SSyMW5aXNLGTRIe-72" target="ZTpw4SSyMW5aXNLGTRIe-64">
          <mxGeometry relative="1" as="geometry" />
        </mxCell>
      </root>
    </mxGraphModel>
  </diagram>
</mxfile>
